<?xml version="1.0" encoding="utf-8"?>
<!-- Generator: Adobe Illustrator 12.0.1, SVG Export Plug-In . SVG Version: 6.00 Build 51448)  -->
<!DOCTYPE svg PUBLIC "-//W3C//DTD SVG 1.1//EN" "http://www.w3.org/Graphics/SVG/1.1/DTD/svg11.dtd" [
	<!ENTITY ns_svg "http://www.w3.org/2000/svg">
	<!ENTITY ns_xlink "http://www.w3.org/1999/xlink">
]>
<svg  version="1.1" id="SVGs" xmlns="&ns_svg;" xmlns:xlink="&ns_xlink;" width="360" height="152.603" viewBox="0 0 360 152.603"
	 overflow="visible" enable-background="new 0 0 360 152.603" xml:space="preserve">
<path fill="#E7DBD6" d="M121.732,62.778c-4.875,0.915-7.311,1.399-12.186,2.396c0.371-16.198,0.745-32.395,1.117-48.593
	c15.341-3.624,30.703-6.864,46.335-9.379c-0.988,16.86-1.976,33.721-2.963,50.58c-4.875,0.559-7.313,0.884-12.188,1.602
	c-1.375,28.045-2.756,56.091-4.131,84.136c-6.255,0.497-12.493,1.134-18.714,1.882C119.912,117.86,120.824,90.319,121.732,62.778z
	 M172.824,12.864c-0.231,26.786-0.467,53.572-0.701,80.358c-4.875,1.059-7.312,1.583-12.187,2.603
	c-0.308,16.124-0.614,32.248-0.923,48.372c15.463-3.836,30.871-7.841,46.333-11.678c-0.822-41.371-1.649-82.742-2.472-124.112
	C192.85,9.852,182.837,11.361,172.824,12.864z M99.724,7.477c-6.25-0.054-12.496-0.348-18.712-0.907
	c-2.522,29.169-5.043,58.338-7.563,87.506c-4.875-0.107-7.313-0.226-12.188-0.612c-1.667,17.498-3.335,34.996-5.004,52.492
	c15.652,0.364,30.835-0.568,46.335-2.475c1.051-16.927,2.104-33.854,3.158-50.779c-4.875,0.487-7.313,0.688-12.188,0.975
	C95.616,64.944,97.671,36.21,99.724,7.477z M36.889,98.298c3.197-29.723,6.395-59.444,9.591-89.167
	C36.845,6.623,27.776,3.636,18.626,0C12.417,48.127,6.212,96.255,0,144.38c14.477,4.25,28.683,6.895,43.876,8.223
	c1.733-17.551,3.467-35.102,5.199-52.654C44.2,99.447,41.764,99.121,36.889,98.298z M252.057,87.865
	c-1.377-24.998-2.754-49.996-4.131-74.994c-10.063,0.894-20.048,2.028-30.051,3.334c0.999,41.175,1.999,82.35,2.998,123.526
	c15.34-3.625,30.702-6.866,46.334-9.38c-0.988-14.695-1.976-29.391-2.963-44.087C259.369,86.823,256.932,87.148,252.057,87.865z
	 M341.375,26.16c-9.152-3.635-18.22-6.622-27.854-9.131c3.194,23.322,6.393,46.643,9.59,69.964
	c-4.874-0.823-7.311-1.149-12.186-1.652c1.732,14.005,3.468,28.009,5.2,42.015c15.193,1.327,29.398,3.971,43.875,8.22
	C353.789,99.104,347.577,62.632,341.375,26.16z M276.658,62.668c2.52,23.874,5.04,47.75,7.563,71.624
	c6.217,0.558,12.464,0.853,18.712,0.906c-2.053-24.31-4.107-48.62-6.16-72.931c4.875-0.287,7.313-0.487,12.188-0.976
	c-1.056-14.629-2.107-29.258-3.159-43.887c-15.499,1.907-30.682,2.837-46.334,2.477c1.665,14.057,3.337,28.115,5.003,42.173
	C269.346,62.442,271.783,62.56,276.658,62.668z"/>
</svg>
